<svg xmlns="http://www.w3.org/2000/svg" width="251" height="41" viewBox="0 0 251 41" fill="none">
<g clip-path="url(#clip0_1890_1806)">
<path d="M232.406 20.4049C232.406 26.1089 236.897 31.0405 242.236 31.0405C243.976 31.0405 245.512 30.5991 246.768 29.7503V29.7079C245.962 30.1917 244.867 30.5142 243.577 30.5142C240.054 30.5142 238.925 27.8065 238.925 21.415V17.6123C238.925 13.1645 239.171 10.9831 240.547 9.93059V9.88816C236.141 10.6945 232.415 15.3036 232.415 20.4049M243.042 9.8542V9.89663C244.494 11.3141 244.578 13.6569 244.578 20.2521H250.97C250.97 14.8282 247.575 10.4653 243.042 9.8542ZM222.985 7.06161C222.985 8.87806 224.479 10.3805 226.304 10.3805C228.128 10.3805 229.58 8.88655 229.58 7.06161C229.58 5.23667 228.086 3.78522 226.304 3.78522C224.521 3.78522 222.985 5.27911 222.985 7.06161ZM220.998 22.7561C224.878 22.3147 227.67 19.641 227.67 16.2882C227.67 12.9354 224.801 10.2616 220.998 9.8542V9.89663C222.255 10.4229 222.815 13.173 222.815 16.2882C222.815 19.4033 222.246 22.1535 220.998 22.7222V22.7646V22.7561ZM211.823 16.2797C211.823 19.9635 214.819 22.3062 218.537 22.7476V22.7052C217.281 22.1365 216.678 19.3863 216.678 16.2712C216.678 13.1561 217.281 10.4484 218.537 9.87967V9.83724C214.649 10.2447 211.823 12.9099 211.823 16.2712M209.794 34.8092C209.794 38.0432 213.393 40.1482 218.528 40.3944V40.3519C215.133 39.9869 212.909 37.6442 212.909 34.7328C212.909 33.1965 213.155 31.779 214.038 30.8538V30.8113C211.373 31.4564 209.794 32.7127 209.794 34.8177M221.202 40.3095V40.3519C226.499 39.8681 229.936 36.8718 229.936 32.5089C229.936 28.1461 226.745 26.075 219.87 25.6336C214.284 25.311 213.113 24.7848 213.113 22.9259C213.113 22.5609 213.156 21.9582 213.436 21.432V21.3895C211.415 22.4845 210.439 23.8596 210.439 25.7185C210.439 30.0474 215.295 30.5736 220.914 31.38C225.489 32.11 226.983 33.1625 226.983 35.3864C226.983 37.6103 224.759 39.7917 221.202 40.318M187.878 15.2272C187.878 17.0097 189.295 18.4611 191.112 18.4611C192.928 18.4611 194.346 17.0012 194.346 15.2272C194.346 13.4531 192.894 11.9508 191.112 11.9508C189.329 11.9508 187.878 13.4447 187.878 15.2272ZM186.987 25.8712C186.987 28.9439 189.168 31.049 192.529 31.049C193.658 31.049 194.753 30.7689 195.721 30.2426V30.2002C195.441 30.319 194.991 30.4463 194.668 30.4463C193.378 30.4463 193.013 28.7487 193.013 26.9662V24.3349C193.013 22.0686 193.862 20.371 195.84 19.4373V19.3948C195.11 19.5985 194.142 19.8023 192.81 20.0399C189.168 20.6426 186.987 22.8325 186.987 25.8627M203.488 31.0405C205.389 31.0405 206.28 30.2341 206.679 29.623V29.5805C206.357 29.9455 205.992 29.988 205.584 29.988C204.616 29.988 204.048 29.258 204.048 27.8065V16.9248C204.048 12.477 200.814 9.76932 195.271 9.76932C194.991 9.76932 194.787 9.76933 194.38 9.81177V9.8542C196.723 9.8542 198.021 11.2717 198.021 13.6144V26.0325C198.021 29.224 200.288 31.049 203.479 31.049M165.469 35.293C165.469 37.0755 166.963 38.5694 168.788 38.5694C170.613 38.5694 172.065 37.0755 172.065 35.293C172.065 33.5105 170.605 31.9742 168.788 31.9742C166.972 31.9742 165.469 33.4257 165.469 35.293ZM176.911 31.2103L179.908 22.5948L174.73 10.2956H168.092L176.911 31.2103ZM144.232 20.4049C144.232 25.5402 148.239 30.1917 152.89 30.9217V30.8792C151.354 29.8691 150.742 26.8389 150.742 20.4049C150.742 13.9709 151.345 10.9407 152.89 9.93059V9.88816C148.239 10.6181 144.232 15.2696 144.232 20.4049ZM155.555 30.8792V30.9217C160.207 30.1917 164.213 25.5402 164.213 20.4049C164.213 15.2696 160.207 10.6181 155.555 9.88816V9.93059C157.092 10.9407 157.703 13.9709 157.703 20.4049C157.703 26.8389 157.092 29.8691 155.555 30.8792ZM121.459 2.20642L132.705 31.2103L135.939 21.6272L128.376 2.21491H121.459V2.20642ZM108.888 30.5142H114.957V0.950195H108.888V30.5142ZM103.99 31.0405C104.796 31.0405 105.569 30.8792 106.171 30.4718V30.4293C105.849 30.5906 105.526 30.6755 105.204 30.6755C103.26 30.6755 102.7 28.2479 102.7 22.8325V17.9773C102.7 12.5534 103.269 10.1343 105.204 10.1343C105.526 10.1343 105.849 10.2192 106.171 10.3805V10.338C105.569 9.9306 104.796 9.76932 103.99 9.76932C99.9073 9.76932 96.2234 14.5396 96.2234 20.4049C96.2234 26.2702 99.9073 31.0405 103.99 31.0405ZM73.8148 30.5142H79.8414V10.2956H73.8148V30.5142ZM82.4303 10.3805V10.4229C82.6764 10.3805 82.9141 10.3465 83.1602 10.3465C84.6966 10.3465 85.2229 11.3566 85.2229 13.7842V30.5312H91.2494V17.1879C91.2494 13.1051 89.4329 9.78628 84.8578 9.78628C83.9242 9.78628 83.0329 10.0325 82.4303 10.389M50.1585 15.2272C50.1585 17.0097 51.576 18.4611 53.3925 18.4611C55.2089 18.4611 56.6264 17.0012 56.6264 15.2272C56.6264 13.4531 55.175 11.9508 53.3925 11.9508C51.61 11.9508 50.1585 13.4447 50.1585 15.2272ZM49.2673 25.8712C49.2673 28.9439 51.4487 31.049 54.81 31.049C55.9389 31.049 57.0339 30.7689 58.0015 30.2426V30.2002C57.7214 30.319 57.2715 30.4463 56.949 30.4463C55.6588 30.4463 55.2938 28.7487 55.2938 26.9662V24.3349C55.2938 22.0686 56.1426 20.371 58.1203 19.4373V19.3948C57.3904 19.5985 56.4227 19.8023 55.0901 20.0399C51.4487 20.6426 49.2673 22.8325 49.2673 25.8627M65.7681 31.0405C67.6695 31.0405 68.5607 30.2341 68.9597 29.623V29.5805C68.6371 29.9455 68.2721 29.988 67.8647 29.988C66.897 29.988 66.3283 29.258 66.3283 27.8065V16.9248C66.3283 12.477 63.0944 9.76932 57.5516 9.76932C57.2715 9.76932 57.0678 9.76933 56.6604 9.81177V9.8542C59.0031 9.8542 60.3018 11.2717 60.3018 13.6144V26.0325C60.3018 29.224 62.5681 31.049 65.7596 31.049M39.5993 14.8622C39.5993 16.6786 41.0508 18.1386 42.8333 18.1386C44.6158 18.1386 46.1097 16.6786 46.1097 14.8622C46.1097 13.0457 44.6582 11.6282 42.8333 11.6282C41.0083 11.6282 39.5993 13.0797 39.5993 14.8622ZM37.5791 10.2956H31.5526V30.5142H37.5791V10.2956ZM18.082 8.0717C18.082 9.93059 19.5759 11.4245 21.4433 11.4245C23.3106 11.4245 24.7961 9.93059 24.7961 8.0717C24.7961 6.2128 23.3022 4.71042 21.4433 4.71042C19.5844 4.71042 18.082 6.20432 18.082 8.0717ZM16.5456 30.8028C18.9308 30.0389 19.6183 28.4941 21.9695 28.4941C23.4634 28.4941 24.4396 29.3429 24.7961 30.2341H24.8385V17.9349H18.447V25.3365C18.447 27.9678 17.7594 29.7418 16.5456 30.7519V30.7943V30.8028ZM11.2915 30.8028V30.7604C8.86391 29.1392 7.81138 24.6914 7.81138 16.3646C7.81138 8.03774 8.94029 3.70881 12.0554 1.96875V1.92632C5.46017 3.34383 0.969971 9.04783 0.969971 16.3221C0.969971 23.5964 5.2989 29.4702 11.283 30.8028" fill="#ffffff"/>
</g>
<defs fill="#ffffff">
<clipPath id="clip0_1890_1806" fill="#ffffff">
<rect width="251" height="41" fill="#ffffff"/>
</clipPath>
</defs>
</svg>